<svg width="24" height="24" viewBox="0 0 24 24" fill="none" xmlns="http://www.w3.org/2000/svg">
<path d="M10.5 15.25C10.3071 15.2352 10.1276 15.1455 10 15L7 12C6.93316 11.86 6.91135 11.7028 6.93757 11.5499C6.9638 11.3971 7.03677 11.2561 7.14644 11.1464C7.25611 11.0368 7.39708 10.9638 7.54995 10.9376C7.70281 10.9113 7.86004 10.9332 8 11L10.47 13.47L19 5C19.14 4.93316 19.2972 4.91135 19.45 4.93757C19.6029 4.9638 19.7439 5.03677 19.8536 5.14644C19.9632 5.25611 20.0362 5.39708 20.0624 5.54995C20.0886 5.70281 20.0668 5.86004 20 6L11 15C10.8724 15.1455 10.6929 15.2352 10.5 15.25Z" fill="#565F71"/>
<path d="M12 21C10.3915 20.9974 8.81302 20.5638 7.42892 19.7442C6.04483 18.9247 4.90567 17.7492 4.13 16.34C3.54039 15.29 3.17598 14.1286 3.06 12.93C2.87698 11.1721 3.21561 9.39918 4.03365 7.83246C4.85168 6.26574 6.11291 4.97457 7.66 4.11999C8.71002 3.53038 9.87136 3.16597 11.07 3.04999C12.2641 2.92154 13.4719 3.03722 14.62 3.39C14.7225 3.41047 14.8195 3.45212 14.9049 3.51228C14.9904 3.57245 15.0623 3.6498 15.116 3.73938C15.1698 3.82895 15.2043 3.92878 15.2173 4.03246C15.2302 4.13613 15.2214 4.24137 15.1913 4.34143C15.1612 4.44149 15.1105 4.53415 15.0425 4.61349C14.9746 4.69283 14.8907 4.75708 14.7965 4.80214C14.7022 4.8472 14.5996 4.87206 14.4951 4.87513C14.3907 4.87821 14.2868 4.85943 14.19 4.82C13.2186 4.52792 12.1987 4.43272 11.19 4.53999C10.193 4.64208 9.22695 4.94482 8.35 5.42999C7.50513 5.8961 6.75814 6.52085 6.15 7.27C5.52386 8.03315 5.0563 8.91358 4.77469 9.85971C4.49308 10.8058 4.4031 11.7987 4.51 12.78C4.61209 13.777 4.91483 14.743 5.4 15.62C5.8661 16.4649 6.49086 17.2119 7.24 17.82C8.00316 18.4461 8.88359 18.9137 9.82972 19.1953C10.7758 19.4769 11.7687 19.5669 12.75 19.46C13.747 19.3579 14.713 19.0552 15.59 18.57C16.4349 18.1039 17.1819 17.4791 17.79 16.73C18.4161 15.9668 18.8837 15.0864 19.1653 14.1403C19.4469 13.1941 19.5369 12.2013 19.43 11.22C19.4101 11.0118 19.4737 10.8042 19.6069 10.6429C19.74 10.4817 19.9318 10.3799 20.14 10.36C20.3482 10.3401 20.5558 10.4037 20.717 10.5369C20.8783 10.67 20.9801 10.8618 21 11.07C21.1821 12.829 20.842 14.6026 20.0221 16.1694C19.2022 17.7362 17.9389 19.0268 16.39 19.88C15.3288 20.4937 14.1495 20.8755 12.93 21H12Z" fill="#565F71"/>
</svg>
