<svg width="24" height="24" viewBox="0 0 24 24" fill="none" xmlns="http://www.w3.org/2000/svg">
<path d="M9 16.17L5.53 12.7C5.34302 12.513 5.08943 12.408 4.825 12.408C4.56057 12.408 4.30698 12.513 4.12 12.7C3.93302 12.887 3.82798 13.1406 3.82798 13.405C3.82798 13.5359 3.85377 13.6656 3.90387 13.7865C3.95398 13.9075 4.02742 14.0174 4.12 14.11L8.3 18.29C8.69 18.68 9.32 18.68 9.71 18.29L20.29 7.71C20.477 7.52302 20.582 7.26943 20.582 7.005C20.582 6.74057 20.477 6.48698 20.29 6.3C20.103 6.11302 19.8494 6.00798 19.585 6.00798C19.3206 6.00798 19.067 6.11302 18.88 6.3L9 16.17Z" fill="#565F71"/>
</svg>
