<svg width="24" height="24" viewBox="0 0 24 24" fill="none" xmlns="http://www.w3.org/2000/svg">
<path fill-rule="evenodd" clip-rule="evenodd" d="M12.9 1.49999C15.3 1.64999 17.55 2.84999 19.2 4.49999C21.15 6.59999 22.2 9.14999 22.2 12.15C22.2 14.55 21.3 16.8 19.8 18.75C18.3 20.55 16.2 21.9 13.8 22.35C11.4 22.8 9 22.5 6.9 21.3C4.8 20.1 3.15 18.3 2.25 16.05C1.35 13.8 1.2 11.25 1.95 8.99999C2.7 6.59999 4.05 4.64999 6.15 3.29999C8.1 1.94999 10.5 1.34999 12.9 1.49999ZM13.65 20.85C15.6 20.4 17.4 19.35 18.75 17.7C19.95 16.05 20.7 14.1 20.55 12C20.55 9.59999 19.65 7.19999 18 5.54999C16.5 4.04999 14.7 3.14999 12.6 2.99999C10.65 2.84999 8.55 3.29999 6.9 4.49999C5.25 5.69999 4.05 7.34999 3.45 9.44999C2.85 11.4 2.85 13.5 3.75 15.45C4.65 17.4 6 18.9 7.8 19.95C9.6 21 11.7 21.3 13.65 20.85ZM11.85 11.25L15.45 7.49999L16.5 8.54999L12.9 12.3L16.5 16.05L15.45 17.1L11.85 13.35L8.25 17.1L7.2 16.05L10.8 12.3L7.2 8.54999L8.25 7.49999L11.85 11.25Z" fill="#565F71"/>
</svg>
