<svg width="24" height="24" viewBox="0 0 24 24" fill="none" xmlns="http://www.w3.org/2000/svg">
<path d="M14.6858 11.5125L6.384 10.05V20.8567C6.3841 20.9741 6.40732 21.0904 6.45234 21.1988C6.49736 21.3072 6.56329 21.4057 6.64638 21.4887C6.72946 21.5716 6.82807 21.6374 6.93658 21.6822C7.04508 21.7271 7.16135 21.7501 7.27875 21.75H21.6038C21.7213 21.7503 21.8377 21.7274 21.9464 21.6827C22.0551 21.6379 22.1539 21.5722 22.2371 21.4892C22.3203 21.4062 22.3864 21.3077 22.4315 21.1991C22.4766 21.0906 22.4999 20.9743 22.5 20.8567V16.875L14.6858 11.5125Z" fill="#185C37"/>
<path d="M14.6858 2.25H7.27875C7.16135 2.2499 7.04508 2.27293 6.93658 2.31776C6.82807 2.3626 6.72946 2.42837 6.64638 2.51132C6.56329 2.59426 6.49736 2.69276 6.45234 2.80119C6.40732 2.90962 6.3841 3.02585 6.384 3.14325V7.125L14.6858 12L19.0815 13.4625L22.5 12V7.125L14.6858 2.25Z" fill="#21A366"/>
<path d="M6.384 7.125H14.6858V12H6.384V7.125Z" fill="#107C41"/>
<path opacity="0.1" d="M12.3255 6.14999H6.384V18.3375H12.3255C12.5623 18.3363 12.789 18.2419 12.9566 18.0747C13.1242 17.9075 13.2192 17.681 13.221 17.4442V7.04324C13.2192 6.8065 13.1242 6.57999 12.9566 6.41279C12.789 6.24559 12.5623 6.15117 12.3255 6.14999Z" fill="black"/>
<path opacity="0.2" d="M11.8373 6.63751H6.384V18.825H11.8373C12.074 18.8238 12.3008 18.7294 12.4684 18.5622C12.636 18.395 12.731 18.1685 12.7328 17.9318V7.53076C12.731 7.29402 12.636 7.0675 12.4684 6.90031C12.3008 6.73311 12.074 6.63869 11.8373 6.63751Z" fill="black"/>
<path opacity="0.2" d="M11.8373 6.63751H6.384V17.85H11.8373C12.074 17.8488 12.3008 17.7544 12.4684 17.5872C12.636 17.42 12.731 17.1935 12.7328 16.9568V7.53076C12.731 7.29402 12.636 7.0675 12.4684 6.90031C12.3008 6.73311 12.074 6.63869 11.8373 6.63751Z" fill="black"/>
<path opacity="0.2" d="M11.349 6.63751H6.384V17.85H11.349C11.5858 17.8488 11.8125 17.7544 11.9801 17.5872C12.1477 17.42 12.2427 17.1935 12.2445 16.9568V7.53076C12.2427 7.29402 12.1477 7.0675 11.9801 6.90031C11.8125 6.73311 11.5858 6.63869 11.349 6.63751Z" fill="black"/>
<path d="M2.3955 6.63751H11.349C11.5862 6.63731 11.8137 6.73129 11.9816 6.89878C12.1496 7.06628 12.2441 7.29359 12.2445 7.53076V16.4693C12.2441 16.7064 12.1496 16.9337 11.9816 17.1012C11.8137 17.2687 11.5862 17.3627 11.349 17.3625H2.3955C2.27804 17.3627 2.16168 17.3398 2.05309 17.295C1.9445 17.2502 1.84581 17.1844 1.76264 17.1015C1.67948 17.0185 1.61348 16.92 1.56841 16.8115C1.52334 16.703 1.5001 16.5867 1.5 16.4693V7.53076C1.5001 7.4133 1.52334 7.297 1.56841 7.18853C1.61348 7.08005 1.67948 6.98152 1.76264 6.89856C1.84581 6.81561 1.9445 6.74985 2.05309 6.70506C2.16168 6.66027 2.27804 6.63732 2.3955 6.63751Z" fill="url(#paint0_linear_149_68)"/>
<path d="M4.27499 14.9047L6.15824 11.9917L4.43324 9.09525H5.81849L6.75974 10.95C6.84674 11.1255 6.90974 11.256 6.93824 11.343H6.95099C7.01249 11.202 7.07774 11.0662 7.14599 10.9335L8.15249 9.09825H9.42749L7.65824 11.9782L9.47249 14.907H8.11574L7.02824 12.8737C6.97775 12.7863 6.93484 12.6947 6.89999 12.6H6.88199C6.85028 12.6923 6.808 12.7806 6.75599 12.8632L5.63624 14.9047H4.27499Z" fill="white"/>
<path d="M21.6045 2.25H14.6857V7.125H22.5V3.14325C22.4999 3.02579 22.4767 2.90949 22.4316 2.80102C22.3865 2.69254 22.3205 2.59401 22.2374 2.51105C22.1542 2.4281 22.0555 2.36234 21.9469 2.31755C21.8383 2.27276 21.722 2.2498 21.6045 2.25Z" fill="#33C481"/>
<path d="M14.6857 12H22.5V16.875H14.6857V12Z" fill="#107C41"/>
<defs>
<linearGradient id="paint0_linear_149_68" x1="3.3705" y1="5.93551" x2="10.374" y2="18.0645" gradientUnits="userSpaceOnUse">
<stop stop-color="#18884F"/>
<stop offset="0.5" stop-color="#117E43"/>
<stop offset="1" stop-color="#0B6631"/>
</linearGradient>
</defs>
</svg>
