<svg width="24" height="24" viewBox="0 0 24 24" fill="none" xmlns="http://www.w3.org/2000/svg">
<path d="M20.4 11.0904C19.8103 11.4844 19.1488 11.7583 18.4532 11.8967C17.7577 12.035 17.0417 12.0349 16.3461 11.8965C15.6506 11.7581 14.9891 11.4841 14.3995 11.0901C13.8098 10.696 13.3036 10.1897 12.9096 9.60001C12.5156 9.01032 12.2417 8.34881 12.1034 7.65325C11.9651 6.95768 11.9651 6.24169 12.1035 5.54614C12.2419 4.85059 12.5159 4.18911 12.91 3.59947C13.304 3.00983 13.8103 2.50358 14.4 2.10961C15.5909 1.31396 17.0492 1.02399 18.4539 1.3035C19.8586 1.583 21.0948 2.40908 21.8904 3.60001C22.6861 4.79094 22.976 6.24916 22.6965 7.65388C22.417 9.05861 21.5909 10.2948 20.4 11.0904ZM17.8248 3.77521C17.7409 3.69108 17.6339 3.63376 17.5174 3.61052C17.4008 3.58728 17.28 3.59917 17.1703 3.64467C17.0605 3.69017 16.9667 3.76724 16.9008 3.86611C16.8349 3.96497 16.7998 4.08119 16.8 4.20001V6.00001H15C14.8409 6.00001 14.6883 6.06322 14.5757 6.17575C14.4632 6.28827 14.4 6.44088 14.4 6.60001C14.4 6.75914 14.4632 6.91175 14.5757 7.02427C14.6883 7.1368 14.8409 7.20001 15 7.20001H16.8V9.00001C16.8 9.15914 16.8632 9.31175 16.9757 9.42428C17.0883 9.5368 17.2409 9.60001 17.4 9.60001C17.5591 9.60001 17.7117 9.5368 17.8243 9.42428C17.9368 9.31175 18 9.15914 18 9.00001V7.20001H19.8C19.9591 7.20001 20.1117 7.1368 20.2243 7.02427C20.3368 6.91175 20.4 6.75914 20.4 6.60001C20.4 6.44088 20.3368 6.28827 20.2243 6.17575C20.1117 6.06322 19.9591 6.00001 19.8 6.00001H18V4.20001C18.0001 4.12116 17.9847 4.04306 17.9547 3.97017C17.9246 3.89728 17.8805 3.83103 17.8248 3.77521ZM10.8264 6.00001C10.7726 6.601 10.8005 7.2065 10.9092 7.80001H4.50001C4.26131 7.80001 4.03239 7.70519 3.86361 7.53641C3.69483 7.36762 3.60001 7.13871 3.60001 6.90001C3.60001 6.66132 3.69483 6.4324 3.86361 6.26361C4.03239 6.09483 4.26131 6.00001 4.50001 6.00001H10.8264ZM12.5724 11.1C13.352 11.9372 14.3357 12.5575 15.4272 12.9H6.90001C6.66131 12.9 6.43239 12.8052 6.26361 12.6364C6.09483 12.4676 6.00001 12.2387 6.00001 12C6.00001 11.7613 6.09483 11.5324 6.26361 11.3636C6.43239 11.1948 6.66131 11.1 6.90001 11.1H12.5724ZM14.7 16.2C14.9387 16.2 15.1676 16.2948 15.3364 16.4636C15.5052 16.6324 15.6 16.8613 15.6 17.1C15.6 17.3387 15.5052 17.5676 15.3364 17.7364C15.1676 17.9052 14.9387 18 14.7 18H9.30001C9.06131 18 8.83239 17.9052 8.66361 17.7364C8.49483 17.5676 8.40001 17.3387 8.40001 17.1C8.40001 16.8613 8.49483 16.6324 8.66361 16.4636C8.83239 16.2948 9.06131 16.2 9.30001 16.2H14.7Z" fill="#565F71"/>
</svg>
