<svg width="24" height="24" viewBox="0 0 24 24" fill="none" xmlns="http://www.w3.org/2000/svg">
<path d="M4 12V18V6V12ZM14 21C14.2833 21 14.521 20.904 14.713 20.712C14.905 20.52 15.0007 20.2827 15 20C15 19.7167 14.904 19.479 14.712 19.287C14.52 19.095 14.2827 18.9993 14 19C13.7167 19 13.479 19.096 13.287 19.288C13.095 19.48 12.9993 19.7173 13 20C13 20.2833 13.096 20.521 13.288 20.713C13.48 20.905 13.7173 21.0007 14 21ZM20 11C20.2833 11 20.521 10.904 20.713 10.712C20.905 10.52 21.0007 10.2827 21 10C21 9.71667 20.904 9.479 20.712 9.287C20.52 9.095 20.2827 8.99934 20 9C19.7167 9 19.479 9.096 19.287 9.288C19.095 9.48 18.9993 9.71734 19 10C19 10.2833 19.096 10.521 19.288 10.713C19.48 10.905 19.7173 11.0007 20 11ZM6 11H11V9H6V11ZM6 15H11V13H6V15ZM4 20C3.45 20 2.979 19.804 2.587 19.412C2.195 19.02 1.99933 18.5493 2 18V6C2 5.45 2.196 4.979 2.588 4.587C2.98 4.195 3.45067 3.99934 4 4H20C20.55 4 21.021 4.196 21.413 4.588C21.805 4.98 22.0007 5.45067 22 6H4V18H9V20H4ZM14 23C13.1667 23 12.4583 22.7083 11.875 22.125C11.2917 21.5417 11 20.8333 11 20C11 19.35 11.1877 18.7667 11.563 18.25C11.9383 17.7333 12.4173 17.375 13 17.175V14H19V12.825C18.4167 12.625 17.9373 12.2667 17.562 11.75C17.1867 11.2333 16.9993 10.65 17 10C17 9.16667 17.2917 8.45833 17.875 7.875C18.4583 7.29167 19.1667 7 20 7C20.8333 7 21.5417 7.29167 22.125 7.875C22.7083 8.45833 23 9.16667 23 10C23 10.65 22.8123 11.2333 22.437 11.75C22.0617 12.2667 21.5827 12.625 21 12.825V16H15V17.175C15.5833 17.375 16.0627 17.7333 16.438 18.25C16.8133 18.7667 17.0007 19.35 17 20C17 20.8333 16.7083 21.5417 16.125 22.125C15.5417 22.7083 14.8333 23 14 23Z" fill="#565F71"/>
</svg>
