<svg width="24" height="24" viewBox="0 0 24 24" fill="none" xmlns="http://www.w3.org/2000/svg">
<path d="M18 16.184V14.333C18 12.403 16.43 10.833 14.5 10.833C13.673 10.833 13 10.16 13 9.333V7.816C13.5832 7.61029 14.0884 7.22924 14.4465 6.72509C14.8045 6.22093 14.9979 5.61836 15 5C15 3.346 13.654 2 12 2C10.346 2 9 3.346 9 5C9 6.302 9.839 7.401 11 7.815V9.333C11 10.16 10.327 10.833 9.5 10.833C7.57 10.833 6 12.403 6 14.333V16.184C5.41685 16.3897 4.9116 16.7708 4.55354 17.2749C4.19548 17.7791 4.00213 18.3816 4 19C4 20.654 5.346 22 7 22C8.654 22 10 20.654 10 19C9.99787 18.3816 9.80452 17.7791 9.44646 17.2749C9.0884 16.7708 8.58315 16.3897 8 16.184V14.333C8 13.506 8.673 12.833 9.5 12.833C10.479 12.833 11.364 12.426 12 11.775C12.3248 12.1095 12.7134 12.3755 13.1428 12.5573C13.5722 12.739 14.0337 12.8328 14.5 12.833C15.327 12.833 16 13.506 16 14.333V16.184C15.4168 16.3897 14.9116 16.7708 14.5535 17.2749C14.1955 17.7791 14.0021 18.3816 14 19C14 20.654 15.346 22 17 22C18.654 22 20 20.654 20 19C19.9979 18.3816 19.8045 17.7791 19.4465 17.2749C19.0884 16.7708 18.5832 16.3897 18 16.184ZM7 20C6.74252 19.9885 6.49941 19.8781 6.32128 19.6918C6.14315 19.5055 6.04373 19.2577 6.04373 19C6.04373 18.7423 6.14315 18.4945 6.32128 18.3082C6.49941 18.1219 6.74252 18.0115 7 18C7.25748 18.0115 7.50059 18.1219 7.67872 18.3082C7.85685 18.4945 7.95627 18.7423 7.95627 19C7.95627 19.2577 7.85685 19.5055 7.67872 19.6918C7.50059 19.8781 7.25748 19.9885 7 20ZM12 4C12.1981 3.9998 12.3917 4.05837 12.5565 4.16828C12.7213 4.2782 12.8497 4.43452 12.9256 4.61747C13.0015 4.80042 13.0214 5.00177 12.9828 5.19604C12.9442 5.39031 12.8489 5.56876 12.7088 5.70881C12.5688 5.84887 12.3903 5.94422 12.196 5.98281C12.0018 6.02141 11.8004 6.0015 11.6175 5.92561C11.4345 5.84972 11.2782 5.72127 11.1683 5.5565C11.0584 5.39174 10.9998 5.19806 11 5C11 4.449 11.448 4 12 4ZM17 20C16.7425 19.9885 16.4994 19.8781 16.3213 19.6918C16.1431 19.5055 16.0437 19.2577 16.0437 19C16.0437 18.7423 16.1431 18.4945 16.3213 18.3082C16.4994 18.1219 16.7425 18.0115 17 18C17.2575 18.0115 17.5006 18.1219 17.6787 18.3082C17.8569 18.4945 17.9563 18.7423 17.9563 19C17.9563 19.2577 17.8569 19.5055 17.6787 19.6918C17.5006 19.8781 17.2575 19.9885 17 20Z" fill="#565F71"/>
</svg>
