<svg width="24" height="24" viewBox="0 0 24 24" fill="none" xmlns="http://www.w3.org/2000/svg">
<path d="M2 6.44444C2 5.85507 2.23413 5.28984 2.65087 4.8731C3.06762 4.45635 3.63285 4.22222 4.22222 4.22222H19.7778C20.3671 4.22222 20.9324 4.45635 21.3491 4.8731C21.7659 5.28984 22 5.85507 22 6.44444V17.5556C22 18.1449 21.7659 18.7102 21.3491 19.1269C20.9324 19.5436 20.3671 19.7778 19.7778 19.7778H4.22222C3.63285 19.7778 3.06762 19.5436 2.65087 19.1269C2.23413 18.7102 2 18.1449 2 17.5556V6.44444Z" stroke="#565F71" stroke-width="2" stroke-linecap="round" stroke-linejoin="round"/>
<path d="M2 6.44444L12 13.1111L22 6.44444" stroke="#565F71" stroke-width="2" stroke-linecap="round" stroke-linejoin="round"/>
</svg>
