<svg width="24" height="24" viewBox="0 0 24 24" fill="none" xmlns="http://www.w3.org/2000/svg">
<path d="M12 21C13.2031 21.0001 14.3941 20.7589 15.5024 20.2908C16.6108 19.8226 17.614 19.137 18.4528 18.2744C19.2916 17.4119 19.9489 16.3899 20.3859 15.2689C20.8229 14.1479 21.0307 12.9507 20.997 11.748C19.7383 12.6241 18.2268 13.0626 16.6947 12.9961C15.1626 12.9297 13.6947 12.3619 12.5166 11.3801C11.3386 10.3983 10.5155 9.05685 10.1739 7.56183C9.83235 6.06681 9.99118 4.50099 10.626 3.10501C8.38422 3.45048 6.35556 4.62968 4.94589 6.40668C3.53622 8.18368 2.84952 10.4274 3.02316 12.689C3.19681 14.9506 4.218 17.0632 5.88243 18.6042C7.54686 20.1452 9.73176 21.0008 12 21Z" stroke="#565F71" stroke-width="1.5" stroke-linecap="round" stroke-linejoin="round"/>
</svg>
