<svg width="24" height="24" viewBox="0 0 24 24" fill="none" xmlns="http://www.w3.org/2000/svg">
<g clip-path="url(#clip0_10_465)">
<path d="M8.96572 3.85715L9.70286 1.95429C9.82718 1.63211 10.0459 1.35499 10.3304 1.15923C10.6149 0.963457 10.9518 0.858167 11.2971 0.857147H12.7029C13.0482 0.858167 13.3852 0.963457 13.6696 1.15923C13.9541 1.35499 14.1728 1.63211 14.2971 1.95429L15.0343 3.85715L17.5371 5.29715L19.56 4.98858C19.8968 4.94286 20.2397 4.9983 20.5449 5.14787C20.8501 5.29744 21.104 5.53438 21.2743 5.82858L21.96 7.02858C22.1357 7.32746 22.2167 7.6726 22.1922 8.01844C22.1677 8.36428 22.0389 8.69457 21.8229 8.96572L20.5714 10.56V13.44L21.8571 15.0343C22.0732 15.3054 22.202 15.6357 22.2265 15.9816C22.251 16.3274 22.17 16.6725 21.9943 16.9714L21.3086 18.1714C21.1383 18.4656 20.8844 18.7026 20.5792 18.8521C20.2739 19.0017 19.9311 19.0572 19.5943 19.0114L17.5714 18.7029L15.0686 20.1429L14.3314 22.0457C14.2071 22.3679 13.9884 22.645 13.7039 22.8408C13.4194 23.0366 13.0825 23.1418 12.7371 23.1429H11.2971C10.9518 23.1418 10.6149 23.0366 10.3304 22.8408C10.0459 22.645 9.82718 22.3679 9.70286 22.0457L8.96572 20.1429L6.46286 18.7029L4.44001 19.0114C4.10318 19.0572 3.76036 19.0017 3.45512 18.8521C3.14988 18.7026 2.89599 18.4656 2.72572 18.1714L2.04001 16.9714C1.86429 16.6725 1.78334 16.3274 1.80782 15.9816C1.83231 15.6357 1.96108 15.3054 2.17715 15.0343L3.42858 13.44V10.56L2.14286 8.96572C1.9268 8.69457 1.79802 8.36428 1.77354 8.01844C1.74905 7.6726 1.83001 7.32746 2.00572 7.02858L2.69144 5.82858C2.8617 5.53438 3.11559 5.29744 3.42083 5.14787C3.72608 4.9983 4.06889 4.94286 4.40572 4.98858L6.42858 5.29715L8.96572 3.85715ZM8.57144 12C8.57144 12.6781 8.77252 13.341 9.14925 13.9048C9.52599 14.4686 10.0615 14.9081 10.6879 15.1676C11.3144 15.4271 12.0038 15.495 12.6689 15.3627C13.334 15.2304 13.9449 14.9039 14.4244 14.4244C14.9039 13.9449 15.2304 13.334 15.3627 12.6689C15.495 12.0038 15.4271 11.3144 15.1676 10.6879C14.9081 10.0615 14.4686 9.52599 13.9048 9.14925C13.341 8.77252 12.6781 8.57143 12 8.57143C11.0907 8.57143 10.2186 8.93266 9.57564 9.57564C8.93266 10.2186 8.57144 11.0907 8.57144 12Z" stroke="#565F71" stroke-width="1.71429" stroke-linecap="round" stroke-linejoin="round"/>
</g>
<defs>
<clipPath id="clip0_10_465">
<rect width="24" height="24" fill="white"/>
</clipPath>
</defs>
</svg>
