<svg width="172" height="76" viewBox="0 0 172 76" fill="none" xmlns="http://www.w3.org/2000/svg">
<path d="M48.9365 62.8262C48.9365 64.3779 49.9414 65.8477 51.8486 66.4492L51.0283 67.6387C49.6953 67.1875 48.7383 66.2852 48.1982 65.1367C47.665 66.4492 46.667 67.4814 45.2451 67.9805L44.4248 66.791C46.4141 66.1006 47.4121 64.4531 47.4189 62.6895V61.5137H48.9365V62.8262ZM46.1064 70.8516C46.1064 69.3887 47.7129 68.5205 50.29 68.5273C52.8467 68.5205 54.4258 69.3887 54.4326 70.8516C54.4258 72.3486 52.8467 73.2031 50.29 73.2031C47.7129 73.2031 46.1064 72.3486 46.1064 70.8516ZM47.624 70.8516C47.624 71.6172 48.5947 72 50.29 72C51.9785 72 52.9287 71.6172 52.9287 70.8516C52.9287 70.127 51.9785 69.7168 50.29 69.7168C48.5947 69.7168 47.624 70.127 47.624 70.8516ZM52.792 68.2539V60.8574H54.3096V63.8652H56.0322V65.123H54.3096V68.2539H52.792ZM63.1006 61.8828C63.0938 63.4346 64.8369 65.0137 67.4756 65.3555L66.874 66.5859C64.7754 66.2715 63.1074 65.2393 62.3008 63.8447C61.4941 65.2393 59.833 66.2715 57.7549 66.5859L57.1533 65.3555C59.7646 65.0137 61.501 63.4482 61.501 61.8828V61.2539H63.1006V61.8828ZM56.6611 68.9102V67.6523H67.9268V68.9102H63.0186V73.2168H61.5146V68.9102H56.6611ZM78.7959 66.4766V67.6797H75.1318V70.5098H80.0537V71.7539H68.7607V70.5098H73.6279V67.6797H70.1279V61.7734H78.7002V62.9902H71.6455V66.4766H78.7959ZM85.2764 63.8242C85.2627 66.0322 86.3701 68.2607 88.2842 69.1836L87.3545 70.4004C86.0146 69.7236 85.0508 68.418 84.5244 66.8457C83.9844 68.5273 82.9727 69.9219 81.5576 70.6328L80.6279 69.416C82.6172 68.4727 83.752 66.1074 83.7588 63.8242V61.8555H85.2764V63.8242ZM89.0225 73.2168V60.8574H90.54V65.6973H92.4404V66.9961H90.54V73.2168H89.0225ZM96.3916 61.4043C97.9912 61.3975 99.249 62.3203 99.5566 63.6738H101.792V60.8574H103.31V67.4883H101.792V64.9043H99.5703C99.2764 66.292 98.0049 67.2285 96.3916 67.2285C94.498 67.2285 93.124 66.0117 93.124 64.3027C93.124 62.6143 94.498 61.3975 96.3916 61.4043ZM94.5732 64.3027C94.5732 65.2939 95.3252 65.9502 96.3916 65.9434C97.4307 65.9502 98.1758 65.2939 98.1826 64.3027C98.1758 63.3115 97.4307 62.6689 96.3916 62.6758C95.3252 62.6689 94.5732 63.3115 94.5732 64.3027ZM95.1611 73.0664V68.0625H96.665V69.375H101.792V68.0625H103.31V73.0664H95.1611ZM96.665 71.8359H101.792V70.5508H96.665V71.8359ZM108.026 61.3223V62.6621H113.358V61.3223H114.862V66.3398H111.444V67.4746H116.325V68.7051H105.06V67.4746H109.913V66.3398H106.522V61.3223H108.026ZM106.454 72.9707V69.498H107.972V71.7402H115.054V72.9707H106.454ZM108.026 65.123H113.358V63.8379H108.026V65.123ZM128.438 68.0488V69.252H123.517V73.2168H122.013V69.252H117.146V68.0488H128.438ZM118.513 66.7637V61.3496H120.017V62.8672H125.54V61.3496H127.071V66.7637H118.513ZM120.017 65.5332H125.54V64.0703H120.017V65.5332Z" fill="#0038FF"/>
<path d="M18.8936 45.2969V47.5098H14.7041V53.9766H11.9111V47.5098H7.91504V53.9766H5.10059V47.5098H0.99707V45.2969H18.8936ZM2.80176 39.4961C2.79102 36.7998 5.69141 35.0811 9.8916 35.0703C14.0918 35.0811 17.0244 36.7998 17.0244 39.4961C17.0244 42.1279 14.0918 43.8037 9.8916 43.793C5.69141 43.8037 2.79102 42.1279 2.80176 39.4961ZM5.61621 39.4961C5.60547 40.8711 7.27051 41.6338 9.8916 41.6445C12.5342 41.6338 14.1885 40.8711 14.1885 39.4961C14.1885 38.0566 12.5342 37.2725 9.8916 37.2617C7.27051 37.2725 5.60547 38.0566 5.61621 39.4961ZM38.1865 37.0469V39.3242H35.5439V41.1934H38.1865V43.4492H35.5439V46.2422H32.7939V34.4473H35.5439V37.0469H38.1865ZM20.7197 37.7559V35.6074H29.7002V41.4297H23.4697V43.1484C26.6924 43.127 28.8838 43.0088 31.376 42.5684L31.6768 44.7598C28.873 45.2861 26.3594 45.3828 22.3955 45.3828H20.7412V39.3672H27.0361V37.7559H20.7197ZM22.3955 50.3027C22.3955 47.9502 24.9629 46.543 29.0986 46.543C33.1592 46.543 35.7266 47.9502 35.7373 50.3027C35.7266 52.6123 33.1592 53.9551 29.0986 53.9551C24.9629 53.9551 22.3955 52.6123 22.3955 50.3027ZM25.1025 50.3027C25.0811 51.3662 26.4883 51.9141 29.0986 51.9141C31.6768 51.9141 33.0303 51.3662 33.0303 50.3027C33.0303 49.2178 31.6768 48.6592 29.0986 48.6699C26.4883 48.6592 25.0811 49.2178 25.1025 50.3027ZM56.8779 44.502V46.6504H39.0029V44.502H46.5654V43.2988H41.2373V34.8984H54.7939V37.0039H43.9873V38.0996H54.3428V40.0762H43.9873V41.1934H54.9658V43.2988H49.3154V44.502H56.8779ZM41.0869 50.7539C41.0869 48.6914 43.5576 47.5312 47.9404 47.5527C52.248 47.5312 54.7295 48.6914 54.751 50.7539C54.7295 52.8594 52.248 53.9873 47.9404 53.9766C43.5576 53.9873 41.0869 52.8594 41.0869 50.7539ZM43.8369 50.7539C43.8154 51.5918 45.126 51.957 47.9404 51.957C50.6904 51.957 51.9902 51.5918 52.001 50.7539C51.9902 49.9375 50.6904 49.5615 47.9404 49.5723C45.126 49.5615 43.8154 49.9375 43.8369 50.7539ZM73.5713 34.4258V39.1309H76.2139V41.4082H73.5713V45.877H70.8213V34.4258H73.5713ZM58.0596 38.293V36.1445H62.5068V34.2969H65.2354V36.1445H69.6611V38.293H58.0596ZM59.0049 42.3105C59.0049 40.2266 60.9814 38.8516 63.8604 38.8516C66.707 38.8516 68.6729 40.2266 68.6729 42.3105C68.6729 44.3945 66.707 45.7695 63.8604 45.7695C60.9814 45.7695 59.0049 44.3945 59.0049 42.3105ZM60.7666 53.7617V46.6289H63.4951V48.1113H70.8213V46.6289H73.5713V53.7617H60.7666ZM61.6904 42.3105C61.6797 43.2559 62.5498 43.7607 63.8604 43.7715C65.1816 43.7607 66.0732 43.2559 66.0732 42.3105C66.0732 41.3975 65.1816 40.8496 63.8604 40.8711C62.5498 40.8496 61.6797 41.3975 61.6904 42.3105ZM63.4951 51.6133H70.8213V50.2168H63.4951V51.6133ZM88.0303 35.8438V37.0684C88.0303 38.4219 88.0303 40.377 87.5791 42.8047L84.8936 42.5469C85.248 40.6777 85.334 39.249 85.3555 38.0781H77.9756V35.8438H88.0303ZM76.8154 44.2227C77.9111 44.2227 79.1465 44.2227 80.4463 44.1904V40.3555H83.1748V44.1045C85.1299 44.0186 87.1172 43.8682 88.9541 43.5996L89.1045 45.5762C85.0332 46.3281 80.457 46.4033 77.0518 46.4141L76.8154 44.2227ZM79.6943 53.6328V47.7461H82.4443V51.4414H93.4229V53.6328H79.6943ZM90.0068 49.0566V34.4258H92.8213V40.377H95.1846V42.6758H92.8213V49.0566H90.0068ZM112.479 34.4258V54.0195H109.751V34.4258H112.479ZM97.1182 38.2715V36.0586H106.421V43.5996H99.9756V47.1875C102.962 47.166 105.486 47.0156 108.354 46.543L108.591 48.7559C105.379 49.3252 102.468 49.4434 98.9014 49.4434H97.1396V41.4297H103.628V38.2715H97.1182ZM122.706 38.8516C122.695 42.4395 124.328 46.0381 127.647 47.4453L126.036 49.6367C123.802 48.627 122.255 46.6719 121.363 44.2549C120.482 46.8975 118.882 49.0244 116.497 50.1094L114.843 47.832C118.259 46.3926 119.924 42.6436 119.935 38.8516V35.9297H122.706V38.8516ZM128.7 54.0195V34.4258H131.472V54.0195H128.7ZM144.405 37.0039C144.395 39.8721 146.94 42.9336 151.366 43.6855L150.163 45.9629C146.747 45.2861 144.223 43.3633 142.955 40.8604C141.666 43.3418 139.131 45.2754 135.747 45.9629L134.565 43.6855C138.916 42.9121 141.462 39.8398 141.483 37.0039V35.5859H144.405V37.0039ZM134.114 51.5703V49.3145H152.011V51.5703H134.114ZM161.356 35.5859V37.7988H156.522V39.3457H160.626V41.4512H156.522V43.1592C158.649 43.127 160.207 43.0303 162.022 42.7402L162.302 44.8672C160.057 45.2539 158.188 45.3291 155.233 45.3184H153.901V35.5859H161.356ZM156.587 53.7617V46.8652H169.929V53.7617H156.587ZM159.315 51.5703H167.222V49.0137H159.315V51.5703ZM161.464 41.3223V39.1309H163.44V34.7266H166.04V45.9629H163.44V41.3223H161.464ZM167.329 46.0918V34.4258H169.929V46.0918H167.329Z" fill="#032279"/>
<path d="M91.6955 7.71757C89.7454 4.91985 87.8192 2.68424 87.7381 2.5907L85.5 0L83.8755 1.88007C83.7943 1.97406 81.2541 4.91985 79.3041 7.71757C78.1295 9.40303 77.1847 10.9524 76.4957 12.3227C75.4892 14.3255 75 16.0017 75 17.4464C75 18.8699 75.2779 20.2521 75.8261 21.555C76.355 22.8118 77.1119 23.9405 78.0752 24.9082C79.0386 25.8764 80.1611 26.6367 81.4116 27.1686C82.7079 27.7197 84.0832 27.999 85.4996 27.999C86.9159 27.999 88.2912 27.7197 89.5875 27.1686C90.838 26.6371 91.961 25.8764 92.9239 24.9082C93.8872 23.94 94.6437 22.8118 95.173 21.555C95.7212 20.2521 95.9991 18.8699 95.9991 17.4464C95.9991 16.0012 95.51 14.3255 94.5034 12.3227C93.8153 10.9524 92.8705 9.40303 91.6955 7.71757Z" fill="url(#paint0_linear_174_29)"/>
<g opacity="0.56">
<path d="M80.6684 23.0911C84.8529 18.2653 85.4528 11.9069 82.0079 8.88973C81.2594 8.23408 80.3817 7.79121 79.4232 7.54739C79.383 7.60414 79.3434 7.66088 79.3037 7.71762C78.129 9.40309 77.1842 10.9525 76.4953 12.3227C75.4892 14.3256 75 16.0017 75 17.4465C75 18.87 75.2779 20.2522 75.8261 21.5551C76.355 22.8119 77.1119 23.9401 78.0752 24.9087C78.1851 25.0191 78.2975 25.1264 78.4118 25.231C79.2053 24.6152 79.9653 23.902 80.6684 23.0911Z" fill="url(#paint1_linear_174_29)"/>
<path d="M80.6684 23.0911C84.8529 18.2653 85.4528 11.9069 82.0079 8.88973C81.2594 8.23408 80.3817 7.79121 79.4232 7.54739C79.383 7.60414 79.3434 7.66088 79.3037 7.71762C78.129 9.40309 77.1842 10.9525 76.4953 12.3227C75.4892 14.3256 75 16.0017 75 17.4465C75 18.87 75.2779 20.2522 75.8261 21.5551C76.355 22.8119 77.1119 23.9401 78.0752 24.9087C78.1851 25.0191 78.2975 25.1264 78.4118 25.231C79.2053 24.6152 79.9653 23.902 80.6684 23.0911Z" fill="url(#paint2_linear_174_29)"/>
</g>
<g opacity="0.56">
<path d="M85.1957 17.6464C81.3741 16.637 77.6403 17.1331 75.0781 18.7148C75.1945 19.6914 75.4429 20.6432 75.8266 21.5555C76.3555 22.8123 77.1124 23.9405 78.0757 24.9091C79.039 25.8773 80.1616 26.6376 81.4125 27.1696C82.7088 27.7206 84.0841 27.9999 85.5004 27.9999C86.9168 27.9999 88.2921 27.7206 89.5884 27.1696C90.8389 26.6381 91.9619 25.8773 92.9252 24.9091C93.2066 24.6263 93.4682 24.3284 93.7139 24.019C92.3584 21.1885 89.2294 18.7117 85.1957 17.6464Z" fill="url(#paint3_linear_174_29)"/>
<path d="M85.1957 17.6464C81.3741 16.637 77.6403 17.1331 75.0781 18.7148C75.1945 19.6914 75.4429 20.6432 75.8266 21.5555C76.3555 22.8123 77.1124 23.9405 78.0757 24.9091C79.039 25.8773 80.1616 26.6376 81.4125 27.1696C82.7088 27.7206 84.0841 27.9999 85.5004 27.9999C86.9168 27.9999 88.2921 27.7206 89.5884 27.1696C90.8389 26.6381 91.9619 25.8773 92.9252 24.9091C93.2066 24.6263 93.4682 24.3284 93.7139 24.019C92.3584 21.1885 89.2294 18.7117 85.1957 17.6464Z" fill="url(#paint4_linear_174_29)"/>
</g>
<g opacity="0.56">
<path d="M94.5038 12.3227C93.8153 10.9524 92.8705 9.40306 91.6954 7.7176C91.1423 6.92363 90.591 6.17533 90.0828 5.50815C89.3745 6.43112 88.6352 7.30754 87.869 8.03856C85.7924 10.0197 83.1737 8.28371 81.1999 9.20579C75.8848 11.6888 75.8848 17.6282 80.4976 21.3613C84.0568 24.2415 90.5226 25.2434 95.3525 21.0701C95.3578 21.0656 95.3626 21.0608 95.3679 21.0559C95.7869 19.9011 95.9991 18.6895 95.9991 17.4465C95.9995 16.0017 95.5104 14.3256 94.5038 12.3227Z" fill="url(#paint5_linear_174_29)"/>
<path d="M94.5038 12.3227C93.8153 10.9524 92.8705 9.40306 91.6954 7.7176C91.1423 6.92363 90.591 6.17533 90.0828 5.50815C89.3745 6.43112 88.6352 7.30754 87.869 8.03856C85.7924 10.0197 83.1737 8.28371 81.1999 9.20579C75.8848 11.6888 75.8848 17.6282 80.4976 21.3613C84.0568 24.2415 90.5226 25.2434 95.3525 21.0701C95.3578 21.0656 95.3626 21.0608 95.3679 21.0559C95.7869 19.9011 95.9991 18.6895 95.9991 17.4465C95.9995 16.0017 95.5104 14.3256 94.5038 12.3227Z" fill="url(#paint6_linear_174_29)"/>
</g>
<g opacity="0.56">
<path d="M89.588 27.1691C90.8384 26.6376 91.9614 25.8768 92.9248 24.9086C93.8881 23.9405 94.6446 22.8122 95.1739 21.555C95.7221 20.2521 96 18.8699 96 17.4464C96 16.0012 95.5108 14.3255 94.5043 12.3227C94.3975 12.1103 94.2824 11.8918 94.1633 11.671C92.2155 13.9101 90.1067 16.6955 87.9758 18.5365C84.9116 21.1844 83.19 24.6493 83.0996 27.7192C83.8817 27.9036 84.684 27.9994 85.5 27.9994C86.9159 27.9994 88.2912 27.7201 89.588 27.1691Z" fill="url(#paint7_linear_174_29)"/>
<path d="M89.588 27.1691C90.8384 26.6376 91.9614 25.8768 92.9248 24.9086C93.8881 23.9405 94.6446 22.8122 95.1739 21.555C95.7221 20.2521 96 18.8699 96 17.4464C96 16.0012 95.5108 14.3255 94.5043 12.3227C94.3975 12.1103 94.2824 11.8918 94.1633 11.671C92.2155 13.9101 90.1067 16.6955 87.9758 18.5365C84.9116 21.1844 83.19 24.6493 83.0996 27.7192C83.8817 27.9036 84.684 27.9994 85.5 27.9994C86.9159 27.9994 88.2912 27.7201 89.588 27.1691Z" fill="url(#paint8_linear_174_29)"/>
</g>
<defs>
<linearGradient id="paint0_linear_174_29" x1="75" y1="13.9997" x2="95.9997" y2="13.9997" gradientUnits="userSpaceOnUse">
<stop offset="0.0992" stop-color="#3CFFE6"/>
<stop offset="1" stop-color="#533FFF"/>
</linearGradient>
<linearGradient id="paint1_linear_174_29" x1="70.968" y1="8.96571" x2="83.4967" y2="19.8293" gradientUnits="userSpaceOnUse">
<stop offset="0.0992" stop-color="#3CFFE6"/>
<stop offset="1" stop-color="#533FFF"/>
</linearGradient>
<linearGradient id="paint2_linear_174_29" x1="68.0803" y1="16.3892" x2="89.08" y2="16.3892" gradientUnits="userSpaceOnUse">
<stop offset="0.0992" stop-color="#3CFFE6"/>
<stop offset="1" stop-color="#533FFF"/>
</linearGradient>
<linearGradient id="paint3_linear_174_29" x1="85.3567" y1="17.6888" x2="81.1125" y2="33.7631" gradientUnits="userSpaceOnUse">
<stop offset="0.0992" stop-color="#3CFFE6"/>
<stop offset="1" stop-color="#533FFF"/>
</linearGradient>
<linearGradient id="paint4_linear_174_29" x1="77.3679" y1="17.1587" x2="88.0388" y2="25.4722" gradientUnits="userSpaceOnUse">
<stop offset="0.0992" stop-color="#3CFFE6"/>
<stop offset="1" stop-color="#533FFF"/>
</linearGradient>
<linearGradient id="paint5_linear_174_29" x1="81.1924" y1="8.78263" x2="93.324" y2="22.8235" gradientUnits="userSpaceOnUse">
<stop offset="0.0992" stop-color="#3CFFE6"/>
<stop offset="1" stop-color="#533FFF"/>
</linearGradient>
<linearGradient id="paint6_linear_174_29" x1="81.8026" y1="21.3193" x2="96.3169" y2="6.77755" gradientUnits="userSpaceOnUse">
<stop offset="0.0992" stop-color="#3CFFE6"/>
<stop offset="1" stop-color="#533FFF"/>
</linearGradient>
<linearGradient id="paint7_linear_174_29" x1="86.846" y1="17.6082" x2="98.6379" y2="31.2558" gradientUnits="userSpaceOnUse">
<stop offset="0.0992" stop-color="#3CFFE6"/>
<stop offset="1" stop-color="#533FFF"/>
</linearGradient>
<linearGradient id="paint8_linear_174_29" x1="102.209" y1="13.442" x2="85.9218" y2="22.8451" gradientUnits="userSpaceOnUse">
<stop offset="0.0992" stop-color="#3CFFE6"/>
<stop offset="1" stop-color="#533FFF"/>
</linearGradient>
</defs>
</svg>
