<svg width="143" height="30" viewBox="0 0 143 30" fill="none" xmlns="http://www.w3.org/2000/svg">
<path d="M38.583 21.4297V22.9385H35.7266V27.3477H33.8223V22.9385H31.0977V27.3477H29.1787V22.9385H26.3809V21.4297H38.583ZM27.6113 17.4746C27.604 15.6362 29.5815 14.4644 32.4453 14.457C35.3091 14.4644 37.3086 15.6362 37.3086 17.4746C37.3086 19.269 35.3091 20.4116 32.4453 20.4043C29.5815 20.4116 27.604 19.269 27.6113 17.4746ZM29.5303 17.4746C29.5229 18.4121 30.6582 18.9321 32.4453 18.9395C34.2471 18.9321 35.375 18.4121 35.375 17.4746C35.375 16.4932 34.2471 15.9585 32.4453 15.9512C30.6582 15.9585 29.5229 16.4932 29.5303 17.4746ZM51.7373 15.8047V17.3574H49.9355V18.6318H51.7373V20.1699H49.9355V22.0742H48.0605V14.0322H49.9355V15.8047H51.7373ZM39.8281 16.2881V14.8232H45.9512V18.793H41.7031V19.9648C43.9004 19.9502 45.3945 19.8696 47.0938 19.5693L47.2988 21.0635C45.3872 21.4224 43.6733 21.4883 40.9707 21.4883H39.8428V17.3867H44.1348V16.2881H39.8281ZM40.9707 24.8428C40.9707 23.2388 42.7212 22.2793 45.541 22.2793C48.3096 22.2793 50.0601 23.2388 50.0674 24.8428C50.0601 26.4175 48.3096 27.333 45.541 27.333C42.7212 27.333 40.9707 26.4175 40.9707 24.8428ZM42.8164 24.8428C42.8018 25.5679 43.7612 25.9414 45.541 25.9414C47.2988 25.9414 48.2217 25.5679 48.2217 24.8428C48.2217 24.103 47.2988 23.7222 45.541 23.7295C43.7612 23.7222 42.8018 24.103 42.8164 24.8428ZM64.4814 20.8877V22.3525H52.2939V20.8877H57.4502V20.0674H53.8174V14.3398H63.0605V15.7754H55.6924V16.5225H62.7529V17.8701H55.6924V18.6318H63.1777V20.0674H59.3252V20.8877H64.4814ZM53.7148 25.1504C53.7148 23.7441 55.3994 22.9531 58.3877 22.9678C61.3247 22.9531 63.0166 23.7441 63.0312 25.1504C63.0166 26.5859 61.3247 27.355 58.3877 27.3477C55.3994 27.355 53.7148 26.5859 53.7148 25.1504ZM55.5898 25.1504C55.5752 25.7217 56.4688 25.9707 58.3877 25.9707C60.2627 25.9707 61.1489 25.7217 61.1562 25.1504C61.1489 24.5938 60.2627 24.3374 58.3877 24.3447C56.4688 24.3374 55.5752 24.5938 55.5898 25.1504ZM75.8633 14.0176V17.2256H77.665V18.7783H75.8633V21.8252H73.9883V14.0176H75.8633ZM65.2871 16.6543V15.1895H68.3193V13.9297H70.1797V15.1895H73.1973V16.6543H65.2871ZM65.9316 19.3936C65.9316 17.9727 67.2793 17.0352 69.2422 17.0352C71.1831 17.0352 72.5234 17.9727 72.5234 19.3936C72.5234 20.8145 71.1831 21.752 69.2422 21.752C67.2793 21.752 65.9316 20.8145 65.9316 19.3936ZM67.1328 27.2012V22.3379H68.9932V23.3486H73.9883V22.3379H75.8633V27.2012H67.1328ZM67.7627 19.3936C67.7554 20.0381 68.3486 20.3823 69.2422 20.3896C70.1431 20.3823 70.751 20.0381 70.751 19.3936C70.751 18.771 70.1431 18.3975 69.2422 18.4121C68.3486 18.3975 67.7554 18.771 67.7627 19.3936ZM68.9932 25.7363H73.9883V24.7842H68.9932V25.7363ZM85.7217 14.9844V15.8193C85.7217 16.7422 85.7217 18.0752 85.4141 19.7305L83.583 19.5547C83.8247 18.2803 83.8833 17.3062 83.8979 16.5078H78.8662V14.9844H85.7217ZM78.0752 20.6973C78.8223 20.6973 79.6646 20.6973 80.5508 20.6753V18.0605H82.4111V20.6167C83.7441 20.5581 85.0991 20.4556 86.3516 20.2725L86.4541 21.6201C83.6782 22.1328 80.5581 22.1841 78.2363 22.1914L78.0752 20.6973ZM80.0381 27.1133V23.0996H81.9131V25.6191H89.3984V27.1133H80.0381ZM87.0693 23.9932V14.0176H88.9883V18.0752H90.5996V19.6426H88.9883V23.9932H87.0693ZM102.392 14.0176V27.377H100.531V14.0176H102.392ZM91.918 16.6396V15.1309H98.2607V20.2725H93.8662V22.7188C95.9023 22.7041 97.6235 22.6016 99.5791 22.2793L99.7402 23.7881C97.5503 24.1763 95.5654 24.2568 93.1338 24.2568H91.9326V18.793H96.3564V16.6396H91.918ZM109.364 17.0352C109.357 19.4814 110.47 21.9351 112.733 22.8945L111.635 24.3887C110.111 23.7002 109.057 22.3672 108.449 20.7192C107.848 22.521 106.757 23.9712 105.131 24.7109L104.003 23.1582C106.332 22.1768 107.467 19.6206 107.475 17.0352V15.043H109.364V17.0352ZM113.451 27.377V14.0176H115.341V27.377H113.451ZM124.159 15.7754C124.152 17.731 125.888 19.8184 128.905 20.3311L128.085 21.8838C125.756 21.4224 124.035 20.1113 123.17 18.4048C122.292 20.0967 120.563 21.415 118.256 21.8838L117.45 20.3311C120.417 19.8037 122.152 17.709 122.167 15.7754V14.8086H124.159V15.7754ZM117.143 25.707V24.1689H129.345V25.707H117.143ZM135.717 14.8086V16.3174H132.421V17.3721H135.219V18.8076H132.421V19.9722C133.871 19.9502 134.933 19.8843 136.171 19.6865L136.361 21.1367C134.831 21.4004 133.556 21.4517 131.542 21.4443H130.634V14.8086H135.717ZM132.465 27.2012V22.499H141.562V27.2012H132.465ZM134.325 25.707H139.716V23.9639H134.325V25.707ZM135.79 18.7197V17.2256H137.138V14.2227H138.91V21.8838H137.138V18.7197H135.79ZM139.789 21.9717V14.0176H141.562V21.9717H139.789Z" fill="#032279"/>
<path d="M28.7344 2.75781C28.7344 3.64453 29.3086 4.48438 30.3984 4.82812L29.9297 5.50781C29.168 5.25 28.6211 4.73438 28.3125 4.07812C28.0078 4.82812 27.4375 5.41797 26.625 5.70312L26.1562 5.02344C27.293 4.62891 27.8633 3.6875 27.8672 2.67969V2.00781H28.7344V2.75781ZM27.1172 7.34375C27.1172 6.50781 28.0352 6.01172 29.5078 6.01562C30.9688 6.01172 31.8711 6.50781 31.875 7.34375C31.8711 8.19922 30.9688 8.6875 29.5078 8.6875C28.0352 8.6875 27.1172 8.19922 27.1172 7.34375ZM27.9844 7.34375C27.9844 7.78125 28.5391 8 29.5078 8C30.4727 8 31.0156 7.78125 31.0156 7.34375C31.0156 6.92969 30.4727 6.69531 29.5078 6.69531C28.5391 6.69531 27.9844 6.92969 27.9844 7.34375ZM30.9375 5.85938V1.63281H31.8047V3.35156H32.7891V4.07031H31.8047V5.85938H30.9375ZM36.8281 2.21875C36.8242 3.10547 37.8203 4.00781 39.3281 4.20312L38.9844 4.90625C37.7852 4.72656 36.832 4.13672 36.3711 3.33984C35.9102 4.13672 34.9609 4.72656 33.7734 4.90625L33.4297 4.20312C34.9219 4.00781 35.9141 3.11328 35.9141 2.21875V1.85938H36.8281V2.21875ZM33.1484 6.23438V5.51562H39.5859V6.23438H36.7812V8.69531H35.9219V6.23438H33.1484ZM45.7969 4.84375V5.53125H43.7031V7.14844H46.5156V7.85938H40.0625V7.14844H42.8438V5.53125H40.8438V2.15625H45.7422V2.85156H41.7109V4.84375H45.7969ZM49.5 3.32812C49.4922 4.58984 50.125 5.86328 51.2188 6.39062L50.6875 7.08594C49.9219 6.69922 49.3711 5.95312 49.0703 5.05469C48.7617 6.01562 48.1836 6.8125 47.375 7.21875L46.8438 6.52344C47.9805 5.98438 48.6289 4.63281 48.6328 3.32812V2.20312H49.5V3.32812ZM51.6406 8.69531V1.63281H52.5078V4.39844H53.5938V5.14062H52.5078V8.69531H51.6406ZM55.8516 1.94531C56.7656 1.94141 57.4844 2.46875 57.6602 3.24219H58.9375V1.63281H59.8047V5.42188H58.9375V3.94531H57.668C57.5 4.73828 56.7734 5.27344 55.8516 5.27344C54.7695 5.27344 53.9844 4.57812 53.9844 3.60156C53.9844 2.63672 54.7695 1.94141 55.8516 1.94531ZM54.8125 3.60156C54.8125 4.16797 55.2422 4.54297 55.8516 4.53906C56.4453 4.54297 56.8711 4.16797 56.875 3.60156C56.8711 3.03516 56.4453 2.66797 55.8516 2.67188C55.2422 2.66797 54.8125 3.03516 54.8125 3.60156ZM55.1484 8.60938V5.75H56.0078V6.5H58.9375V5.75H59.8047V8.60938H55.1484ZM56.0078 7.90625H58.9375V7.17188H56.0078V7.90625ZM62.5 1.89844V2.66406H65.5469V1.89844H66.4062V4.76562H64.4531V5.41406H67.2422V6.11719H60.8047V5.41406H63.5781V4.76562H61.6406V1.89844H62.5ZM61.6016 8.55469V6.57031H62.4688V7.85156H66.5156V8.55469H61.6016ZM62.5 4.07031H65.5469V3.33594H62.5V4.07031ZM74.1641 5.74219V6.42969H71.3516V8.69531H70.4922V6.42969H67.7109V5.74219H74.1641ZM68.4922 5.00781V1.91406H69.3516V2.78125H72.5078V1.91406H73.3828V5.00781H68.4922ZM69.3516 4.30469H72.5078V3.46875H69.3516V4.30469Z" fill="#0038FF"/>
<g clip-path="url(#clip0_15_2)">
<path d="M14.3107 9.6152C12.6392 7.2171 10.9881 5.30082 10.9186 5.22065L9.00019 3L7.60772 4.61153C7.53815 4.69208 5.36079 7.2171 3.6893 9.6152C2.68248 11.0599 1.87263 12.388 1.28207 13.5625C0.41929 15.2793 0 16.716 0 17.9544C0 19.1745 0.23819 20.3593 0.708143 21.4761C1.16146 22.5534 1.81025 23.5208 2.63597 24.3503C3.4617 25.1802 4.42391 25.8319 5.49577 26.2879C6.60694 26.7602 7.7858 26.9996 8.99981 26.9996C10.2138 26.9996 11.3927 26.7602 12.5039 26.2879C13.5757 25.8323 14.5383 25.1802 15.3636 24.3503C16.1894 23.5205 16.8378 22.5534 17.2915 21.4761C17.7614 20.3593 17.9996 19.1745 17.9996 17.9544C17.9996 16.7156 17.5803 15.2793 16.7176 13.5625C16.1277 12.388 15.3179 11.0599 14.3107 9.6152Z" fill="url(#paint0_linear_15_2)"/>
<g opacity="0.56">
<path d="M4.8587 22.7928C8.44555 18.6562 8.95973 13.2061 6.00693 10.6199C5.36533 10.0579 4.61295 9.67828 3.79138 9.46928C3.75698 9.51792 3.72295 9.56656 3.68892 9.6152C2.6821 11.0599 1.87225 12.388 1.28169 13.5625C0.419291 15.2793 0 16.716 0 17.9544C0 19.1745 0.23819 20.3593 0.708143 21.4761C1.16146 22.5534 1.81025 23.5205 2.63597 24.3507C2.73011 24.4453 2.82652 24.5373 2.92445 24.627C3.60461 24.0992 4.25604 23.4878 4.8587 22.7928Z" fill="url(#paint1_linear_15_2)"/>
<path d="M4.8587 22.7928C8.44555 18.6562 8.95973 13.2061 6.00693 10.6199C5.36533 10.0579 4.61295 9.67828 3.79138 9.46928C3.75698 9.51792 3.72295 9.56656 3.68892 9.6152C2.6821 11.0599 1.87225 12.388 1.28169 13.5625C0.419291 15.2793 0 16.716 0 17.9544C0 19.1745 0.23819 20.3593 0.708143 21.4761C1.16146 22.5534 1.81025 23.5205 2.63597 24.3507C2.73011 24.4453 2.82652 24.5373 2.92445 24.627C3.60461 24.0992 4.25604 23.4878 4.8587 22.7928Z" fill="url(#paint2_linear_15_2)"/>
</g>
<g opacity="0.56">
<path d="M8.73931 18.1258C5.46363 17.2605 2.26318 17.6858 0.0669174 19.0415C0.16673 19.8787 0.379589 20.6945 0.708519 21.4765C1.16184 22.5538 1.81062 23.5208 2.63635 24.3511C3.46207 25.181 4.42429 25.8327 5.49652 26.2887C6.6077 26.761 7.78655 27.0004 9.00056 27.0004C10.2146 27.0004 11.3934 26.761 12.5046 26.2887C13.5765 25.8331 14.5391 25.181 15.3648 24.3511C15.606 24.1087 15.8302 23.8533 16.0408 23.5881C14.8789 21.1619 12.1968 19.0389 8.73931 18.1258Z" fill="url(#paint3_linear_15_2)"/>
<path d="M8.73931 18.1258C5.46363 17.2605 2.26318 17.6858 0.0669174 19.0415C0.16673 19.8787 0.379589 20.6945 0.708519 21.4765C1.16184 22.5538 1.81062 23.5208 2.63635 24.3511C3.46207 25.181 4.42429 25.8327 5.49652 26.2887C6.6077 26.761 7.78655 27.0004 9.00056 27.0004C10.2146 27.0004 11.3934 26.761 12.5046 26.2887C13.5765 25.8331 14.5391 25.181 15.3648 24.3511C15.606 24.1087 15.8302 23.8533 16.0408 23.5881C14.8789 21.1619 12.1968 19.0389 8.73931 18.1258Z" fill="url(#paint4_linear_15_2)"/>
</g>
<g opacity="0.56">
<path d="M16.7179 13.5625C16.1277 12.388 15.3179 11.0599 14.3107 9.6152C13.8366 8.93464 13.364 8.29322 12.9284 7.72134C12.3212 8.51248 11.6876 9.26371 11.0309 9.89031C9.25086 11.5885 7.0062 10.1004 5.31429 10.8908C0.758428 13.0191 0.758428 18.1102 4.71239 21.3101C7.76311 23.7788 13.3054 24.6376 17.4454 21.0604C17.4499 21.0566 17.4541 21.0524 17.4586 21.0483C17.8178 20.0584 17.9996 19.0199 17.9996 17.9544C18 16.716 17.5807 15.2793 16.7179 13.5625Z" fill="url(#paint5_linear_15_2)"/>
<path d="M16.7179 13.5625C16.1277 12.388 15.3179 11.0599 14.3107 9.6152C13.8366 8.93464 13.364 8.29322 12.9284 7.72134C12.3212 8.51248 11.6876 9.26371 11.0309 9.89031C9.25086 11.5885 7.0062 10.1004 5.31429 10.8908C0.758428 13.0191 0.758428 18.1102 4.71239 21.3101C7.76311 23.7788 13.3054 24.6376 17.4454 21.0604C17.4499 21.0566 17.4541 21.0524 17.4586 21.0483C17.8178 20.0584 17.9996 19.0199 17.9996 17.9544C18 16.716 17.5807 15.2793 16.7179 13.5625Z" fill="url(#paint6_linear_15_2)"/>
</g>
<g opacity="0.56">
<path d="M12.5042 26.2883C13.5761 25.8327 14.5387 25.1806 15.3644 24.3507C16.1901 23.5208 16.8385 22.5538 17.2922 21.4761C17.7622 20.3593 18.0004 19.1745 18.0004 17.9544C18.0004 16.7156 17.5811 15.2793 16.7183 13.5625C16.6268 13.3805 16.5281 13.1932 16.4261 13.0039C14.7565 14.9232 12.9489 17.3107 11.1224 18.8888C8.49583 21.1585 7.02019 24.1284 6.94268 26.7598C7.61302 26.9179 8.30074 27 9.00019 27C10.2138 27 11.3927 26.7606 12.5042 26.2883Z" fill="url(#paint7_linear_15_2)"/>
<path d="M12.5042 26.2883C13.5761 25.8327 14.5387 25.1806 15.3644 24.3507C16.1901 23.5208 16.8385 22.5538 17.2922 21.4761C17.7622 20.3593 18.0004 19.1745 18.0004 17.9544C18.0004 16.7156 17.5811 15.2793 16.7183 13.5625C16.6268 13.3805 16.5281 13.1932 16.4261 13.0039C14.7565 14.9232 12.9489 17.3107 11.1224 18.8888C8.49583 21.1585 7.02019 24.1284 6.94268 26.7598C7.61302 26.9179 8.30074 27 9.00019 27C10.2138 27 11.3927 26.7606 12.5042 26.2883Z" fill="url(#paint8_linear_15_2)"/>
</g>
</g>
<defs>
<linearGradient id="paint0_linear_15_2" x1="0" y1="15" x2="18.0001" y2="15" gradientUnits="userSpaceOnUse">
<stop offset="0.0992" stop-color="#3CFFE6"/>
<stop offset="1" stop-color="#533FFF"/>
</linearGradient>
<linearGradient id="paint1_linear_15_2" x1="-3.45611" y1="10.685" x2="7.28307" y2="19.9969" gradientUnits="userSpaceOnUse">
<stop offset="0.0992" stop-color="#3CFFE6"/>
<stop offset="1" stop-color="#533FFF"/>
</linearGradient>
<linearGradient id="paint2_linear_15_2" x1="-5.93128" y1="17.0481" x2="12.0688" y2="17.0481" gradientUnits="userSpaceOnUse">
<stop offset="0.0992" stop-color="#3CFFE6"/>
<stop offset="1" stop-color="#533FFF"/>
</linearGradient>
<linearGradient id="paint3_linear_15_2" x1="8.87739" y1="18.1621" x2="5.23935" y2="31.9404" gradientUnits="userSpaceOnUse">
<stop offset="0.0992" stop-color="#3CFFE6"/>
<stop offset="1" stop-color="#533FFF"/>
</linearGradient>
<linearGradient id="paint4_linear_15_2" x1="2.02965" y1="17.7077" x2="11.1763" y2="24.8337" gradientUnits="userSpaceOnUse">
<stop offset="0.0992" stop-color="#3CFFE6"/>
<stop offset="1" stop-color="#533FFF"/>
</linearGradient>
<linearGradient id="paint5_linear_15_2" x1="5.30786" y1="10.5281" x2="15.7066" y2="22.5634" gradientUnits="userSpaceOnUse">
<stop offset="0.0992" stop-color="#3CFFE6"/>
<stop offset="1" stop-color="#533FFF"/>
</linearGradient>
<linearGradient id="paint6_linear_15_2" x1="5.83095" y1="21.274" x2="18.272" y2="8.80943" gradientUnits="userSpaceOnUse">
<stop offset="0.0992" stop-color="#3CFFE6"/>
<stop offset="1" stop-color="#533FFF"/>
</linearGradient>
<linearGradient id="paint7_linear_15_2" x1="10.1539" y1="18.093" x2="20.2615" y2="29.7912" gradientUnits="userSpaceOnUse">
<stop offset="0.0992" stop-color="#3CFFE6"/>
<stop offset="1" stop-color="#533FFF"/>
</linearGradient>
<linearGradient id="paint8_linear_15_2" x1="23.3226" y1="14.5219" x2="9.36178" y2="22.582" gradientUnits="userSpaceOnUse">
<stop offset="0.0992" stop-color="#3CFFE6"/>
<stop offset="1" stop-color="#533FFF"/>
</linearGradient>
<clipPath id="clip0_15_2">
<rect width="18" height="24" fill="white" transform="translate(0 3)"/>
</clipPath>
</defs>
</svg>
