<svg width="165" height="36" viewBox="0 0 165 36" fill="none" xmlns="http://www.w3.org/2000/svg">
<path d="M46.2607 26.8203V28.5303H43.0234V33.5273H40.8652V28.5303H37.7773V33.5273H35.6025V28.5303H32.4316V26.8203H46.2607ZM33.8262 22.3379C33.8179 20.2544 36.0591 18.9263 39.3047 18.918C42.5503 18.9263 44.8164 20.2544 44.8164 22.3379C44.8164 24.3716 42.5503 25.6665 39.3047 25.6582C36.0591 25.6665 33.8179 24.3716 33.8262 22.3379ZM36.001 22.3379C35.9927 23.4004 37.2793 23.9897 39.3047 23.998C41.3467 23.9897 42.625 23.4004 42.625 22.3379C42.625 21.2256 41.3467 20.6196 39.3047 20.6113C37.2793 20.6196 35.9927 21.2256 36.001 22.3379ZM61.1689 20.4453V22.2051H59.127V23.6494H61.1689V25.3926H59.127V27.5508H57.002V18.4365H59.127V20.4453H61.1689ZM47.6719 20.9932V19.333H54.6113V23.832H49.7969V25.1602C52.2871 25.1436 53.9805 25.0522 55.9062 24.7119L56.1387 26.4053C53.9722 26.812 52.0298 26.8867 48.9668 26.8867H47.6885V22.2383H52.5527V20.9932H47.6719ZM48.9668 30.6885C48.9668 28.8706 50.9507 27.7832 54.1465 27.7832C57.2842 27.7832 59.2681 28.8706 59.2764 30.6885C59.2681 32.4731 57.2842 33.5107 54.1465 33.5107C50.9507 33.5107 48.9668 32.4731 48.9668 30.6885ZM51.0586 30.6885C51.042 31.5103 52.1294 31.9336 54.1465 31.9336C56.1387 31.9336 57.1846 31.5103 57.1846 30.6885C57.1846 29.8501 56.1387 29.4185 54.1465 29.4268C52.1294 29.4185 51.042 29.8501 51.0586 30.6885ZM75.6123 26.2061V27.8662H61.7998V26.2061H67.6436V25.2764H63.5264V18.7852H74.002V20.4121H65.6514V21.2588H73.6533V22.7861H65.6514V23.6494H74.1348V25.2764H69.7686V26.2061H75.6123ZM63.4102 31.0371C63.4102 29.4434 65.3193 28.5469 68.7061 28.5635C72.0347 28.5469 73.9521 29.4434 73.9688 31.0371C73.9521 32.6641 72.0347 33.5356 68.7061 33.5273C65.3193 33.5356 63.4102 32.6641 63.4102 31.0371ZM65.5352 31.0371C65.5186 31.6846 66.5312 31.9668 68.7061 31.9668C70.8311 31.9668 71.8354 31.6846 71.8438 31.0371C71.8354 30.4062 70.8311 30.1157 68.7061 30.124C66.5312 30.1157 65.5186 30.4062 65.5352 31.0371ZM88.5117 18.4199V22.0557H90.5537V23.8154H88.5117V27.2686H86.3867V18.4199H88.5117ZM76.5254 21.4082V19.748H79.9619V18.3203H82.0703V19.748H85.4902V21.4082H76.5254ZM77.2559 24.5127C77.2559 22.9023 78.7832 21.8398 81.0078 21.8398C83.2075 21.8398 84.7266 22.9023 84.7266 24.5127C84.7266 26.123 83.2075 27.1855 81.0078 27.1855C78.7832 27.1855 77.2559 26.123 77.2559 24.5127ZM78.6172 33.3613V27.8496H80.7256V28.9951H86.3867V27.8496H88.5117V33.3613H78.6172ZM79.3311 24.5127C79.3228 25.2432 79.9951 25.6333 81.0078 25.6416C82.0288 25.6333 82.7178 25.2432 82.7178 24.5127C82.7178 23.8071 82.0288 23.3838 81.0078 23.4004C79.9951 23.3838 79.3228 23.8071 79.3311 24.5127ZM80.7256 31.7012H86.3867V30.6221H80.7256V31.7012ZM99.6846 19.5156V20.4619C99.6846 21.5078 99.6846 23.0186 99.3359 24.8945L97.2607 24.6953C97.5347 23.251 97.6011 22.147 97.6177 21.2422H91.915V19.5156H99.6846ZM91.0186 25.9902C91.8652 25.9902 92.8198 25.9902 93.8242 25.9653V23.002H95.9326V25.8989C97.4434 25.8325 98.979 25.7163 100.398 25.5088L100.515 27.0361C97.3687 27.6172 93.8325 27.6753 91.2012 27.6836L91.0186 25.9902ZM93.2432 33.2617V28.7129H95.3682V31.5684H103.852V33.2617H93.2432ZM101.212 29.7256V18.4199H103.387V23.0186H105.213V24.7949H103.387V29.7256H101.212ZM118.577 18.4199V33.5605H116.469V18.4199H118.577ZM106.707 21.3916V19.6816H113.896V25.5088H108.915V28.2812C111.223 28.2646 113.173 28.1484 115.39 27.7832L115.572 29.4932C113.09 29.9331 110.841 30.0244 108.085 30.0244H106.724V23.832H111.737V21.3916H106.707ZM126.479 21.8398C126.471 24.6123 127.733 27.3931 130.298 28.4805L129.053 30.1738C127.326 29.3936 126.131 27.8828 125.442 26.0151C124.761 28.0571 123.524 29.7007 121.682 30.5391L120.403 28.7793C123.043 27.667 124.33 24.77 124.338 21.8398V19.582H126.479V21.8398ZM131.111 33.5605V18.4199H133.253V33.5605H131.111ZM143.247 20.4121C143.239 22.6284 145.206 24.9941 148.626 25.5752L147.696 27.335C145.057 26.812 143.106 25.3262 142.126 23.3921C141.13 25.3096 139.171 26.8037 136.557 27.335L135.644 25.5752C139.005 24.9775 140.973 22.6035 140.989 20.4121V19.3164H143.247V20.4121ZM135.295 31.668V29.9248H149.124V31.668H135.295ZM156.346 19.3164V21.0264H152.61V22.2217H155.781V23.8486H152.61V25.1685C154.254 25.1436 155.458 25.0688 156.86 24.8447L157.076 26.4883C155.341 26.7871 153.897 26.8452 151.614 26.8369H150.585V19.3164H156.346ZM152.66 33.3613V28.0322H162.97V33.3613H152.66ZM154.769 31.668H160.878V29.6924H154.769V31.668ZM156.429 23.749V22.0557H157.956V18.6523H159.965V27.335H157.956V23.749H156.429ZM160.961 27.4346V18.4199H162.97V27.4346H160.961Z" fill="#032279"/>
<path d="M36.7598 2.79199C36.7598 4.01123 37.5493 5.16602 39.0479 5.63867L38.4033 6.57324C37.356 6.21875 36.604 5.50977 36.1797 4.60742C35.7607 5.63867 34.9766 6.44971 33.8594 6.8418L33.2148 5.90723C34.7778 5.36475 35.562 4.07031 35.5674 2.68457V1.76074H36.7598V2.79199ZM34.5361 9.09766C34.5361 7.94824 35.7983 7.26611 37.8232 7.27148C39.832 7.26611 41.0728 7.94824 41.0781 9.09766C41.0728 10.2739 39.832 10.9453 37.8232 10.9453C35.7983 10.9453 34.5361 10.2739 34.5361 9.09766ZM35.7285 9.09766C35.7285 9.69922 36.4912 10 37.8232 10C39.1499 10 39.8965 9.69922 39.8965 9.09766C39.8965 8.52832 39.1499 8.20605 37.8232 8.20605C36.4912 8.20605 35.7285 8.52832 35.7285 9.09766ZM39.7891 7.05664V1.24512H40.9814V3.6084H42.335V4.59668H40.9814V7.05664H39.7891ZM47.8887 2.05078C47.8833 3.27002 49.2529 4.51074 51.3262 4.7793L50.8535 5.74609C49.2046 5.49902 47.894 4.68799 47.2603 3.59229C46.6265 4.68799 45.3213 5.49902 43.6885 5.74609L43.2158 4.7793C45.2676 4.51074 46.6318 3.28076 46.6318 2.05078V1.55664H47.8887V2.05078ZM42.8291 7.57227V6.58398H51.6807V7.57227H47.8242V10.9561H46.6426V7.57227H42.8291ZM60.2207 5.66016V6.60547H57.3418V8.8291H61.209V9.80664H52.3359V8.8291H56.1602V6.60547H53.4102V1.96484H60.1455V2.9209H54.6025V5.66016H60.2207ZM65.3125 3.57617C65.3018 5.31104 66.1719 7.06201 67.6758 7.78711L66.9453 8.74316C65.8926 8.21143 65.1353 7.18555 64.7217 5.9502C64.2974 7.27148 63.5024 8.36719 62.3906 8.92578L61.6602 7.96973C63.2231 7.22852 64.1147 5.37012 64.1201 3.57617V2.0293H65.3125V3.57617ZM68.2559 10.9561V1.24512H69.4482V5.04785H70.9414V6.06836H69.4482V10.9561H68.2559ZM74.0459 1.6748C75.3027 1.66943 76.291 2.39453 76.5327 3.45801H78.2891V1.24512H79.4814V6.45508H78.2891V4.4248H76.5435C76.3125 5.51514 75.3135 6.25098 74.0459 6.25098C72.5581 6.25098 71.4785 5.29492 71.4785 3.95215C71.4785 2.62549 72.5581 1.66943 74.0459 1.6748ZM72.6172 3.95215C72.6172 4.73096 73.208 5.24658 74.0459 5.24121C74.8623 5.24658 75.4478 4.73096 75.4531 3.95215C75.4478 3.17334 74.8623 2.66846 74.0459 2.67383C73.208 2.66846 72.6172 3.17334 72.6172 3.95215ZM73.0791 10.8379V6.90625H74.2607V7.9375H78.2891V6.90625H79.4814V10.8379H73.0791ZM74.2607 9.87109H78.2891V8.86133H74.2607V9.87109ZM83.1875 1.61035V2.66309H87.377V1.61035H88.5586V5.55273H85.873V6.44434H89.708V7.41113H80.8564V6.44434H84.6699V5.55273H82.0059V1.61035H83.1875ZM81.9521 10.7627V8.03418H83.1445V9.7959H88.709V10.7627H81.9521ZM83.1875 4.59668H87.377V3.58691H83.1875V4.59668ZM99.2256 6.89551V7.84082H95.3584V10.9561H94.1768V7.84082H90.3525V6.89551H99.2256ZM91.4268 5.88574V1.63184H92.6084V2.82422H96.9482V1.63184H98.1514V5.88574H91.4268ZM92.6084 4.91895H96.9482V3.76953H92.6084V4.91895Z" fill="#0038FF"/>
<g clip-path="url(#clip0_55_15)">
<path d="M19.0809 10.8203C16.8523 7.6228 14.6508 5.06776 14.5581 4.96086L12.0003 2L10.1436 4.1487C10.0509 4.25611 7.14772 7.6228 4.91907 10.8203C3.57663 12.7465 2.49684 14.5173 1.70942 16.0833C0.559054 18.3724 0 20.288 0 21.9392C0 23.5661 0.317587 25.1458 0.944191 26.6348C1.54861 28.0712 2.41366 29.3611 3.51463 30.4671C4.6156 31.5737 5.89855 32.4426 7.32769 33.0505C8.80926 33.6803 10.3811 33.9995 11.9997 33.9995C13.6184 33.9995 15.1902 33.6803 16.6718 33.0505C18.1009 32.4431 19.3844 31.5737 20.4849 30.4671C21.5858 29.3606 22.4504 28.0712 23.0553 26.6348C23.6819 25.1458 23.9995 23.5661 23.9995 21.9392C23.9995 20.2875 23.4404 18.3724 22.2901 16.0833C21.5037 14.5173 20.4239 12.7465 19.0809 10.8203Z" fill="url(#paint0_linear_55_15)"/>
<g opacity="0.56">
<path d="M6.47827 28.3904C11.2607 22.875 11.9463 15.6081 8.00924 12.1598C7.15377 11.4105 6.1506 10.9044 5.05518 10.6257C5.0093 10.6906 4.96394 10.7554 4.91857 10.8203C3.57613 12.7465 2.49633 14.5173 1.70892 16.0833C0.559054 18.3724 0 20.288 0 21.9392C0 23.566 0.317587 25.1458 0.944191 26.6348C1.54861 28.0712 2.41366 29.3606 3.51463 30.4676C3.64015 30.5938 3.7687 30.7164 3.89926 30.836C4.80615 30.1322 5.67473 29.317 6.47827 28.3904Z" fill="url(#paint1_linear_55_15)"/>
<path d="M6.47827 28.3904C11.2607 22.875 11.9463 15.6081 8.00924 12.1598C7.15377 11.4105 6.1506 10.9044 5.05518 10.6257C5.0093 10.6906 4.96394 10.7554 4.91857 10.8203C3.57613 12.7465 2.49633 14.5173 1.70892 16.0833C0.559054 18.3724 0 20.288 0 21.9392C0 23.566 0.317587 25.1458 0.944191 26.6348C1.54861 28.0712 2.41366 29.3606 3.51463 30.4676C3.64015 30.5938 3.7687 30.7164 3.89926 30.836C4.80615 30.1322 5.67473 29.317 6.47827 28.3904Z" fill="url(#paint2_linear_55_15)"/>
</g>
<g opacity="0.56">
<path d="M11.6524 22.1677C7.28484 21.0141 3.01758 21.581 0.0892258 23.3887C0.22231 24.5049 0.506122 25.5926 0.944694 26.6353C1.54912 28.0717 2.41416 29.3611 3.51513 30.4681C4.6161 31.5747 5.89905 32.4436 7.3287 33.0515C8.81026 33.6813 10.3821 34.0005 12.0008 34.0005C13.6194 34.0005 15.1912 33.6813 16.6728 33.0515C18.102 32.4441 19.3854 31.5747 20.4864 30.4681C20.808 30.1449 21.1069 29.8044 21.3877 29.4508C19.8386 26.2158 16.2625 23.3852 11.6524 22.1677Z" fill="url(#paint3_linear_55_15)"/>
<path d="M11.6524 22.1677C7.28484 21.0141 3.01758 21.581 0.0892258 23.3887C0.22231 24.5049 0.506122 25.5926 0.944694 26.6353C1.54912 28.0717 2.41416 29.3611 3.51513 30.4681C4.6161 31.5747 5.89905 32.4436 7.3287 33.0515C8.81026 33.6813 10.3821 34.0005 12.0008 34.0005C13.6194 34.0005 15.1912 33.6813 16.6728 33.0515C18.102 32.4441 19.3854 31.5747 20.4864 30.4681C20.808 30.1449 21.1069 29.8044 21.3877 29.4508C19.8386 26.2158 16.2625 23.3852 11.6524 22.1677Z" fill="url(#paint4_linear_55_15)"/>
</g>
<g opacity="0.56">
<path d="M22.2906 16.0834C21.5037 14.5173 20.4239 12.7466 19.0809 10.8203C18.4488 9.91287 17.8186 9.05764 17.2379 8.29514C16.4283 9.34998 15.5834 10.3516 14.7078 11.1871C12.3345 13.4513 9.34159 11.4673 7.08572 12.5211C1.01124 15.3588 1.01124 22.1469 6.28318 26.4134C10.3508 29.7051 17.7405 30.8502 23.2605 26.0806C23.2665 26.0755 23.2721 26.0699 23.2781 26.0644C23.757 24.7445 23.9995 23.3599 23.9995 21.9392C24 20.288 23.4409 18.3724 22.2906 16.0834Z" fill="url(#paint5_linear_55_15)"/>
<path d="M22.2906 16.0834C21.5037 14.5173 20.4239 12.7466 19.0809 10.8203C18.4488 9.91287 17.8186 9.05764 17.2379 8.29514C16.4283 9.34998 15.5834 10.3516 14.7078 11.1871C12.3345 13.4513 9.34159 11.4673 7.08572 12.5211C1.01124 15.3588 1.01124 22.1469 6.28318 26.4134C10.3508 29.7051 17.7405 30.8502 23.2605 26.0806C23.2665 26.0755 23.2721 26.0699 23.2781 26.0644C23.757 24.7445 23.9995 23.3599 23.9995 21.9392C24 20.288 23.4409 18.3724 22.2906 16.0834Z" fill="url(#paint6_linear_55_15)"/>
</g>
<g opacity="0.56">
<path d="M16.6723 33.051C18.1015 32.4436 19.3849 31.5742 20.4859 30.4676C21.5868 29.3611 22.4514 28.0717 23.0563 26.6348C23.6829 25.1458 24.0005 23.566 24.0005 21.9392C24.0005 20.2875 23.4415 18.3724 22.2911 16.0833C22.1691 15.8407 22.0375 15.5909 21.9014 15.3386C19.6753 17.8977 17.2651 21.0809 14.8298 23.185C11.3278 26.2113 9.36025 30.1712 9.2569 33.6798C10.1507 33.8906 11.0677 34 12.0003 34C13.6184 34 15.1902 33.6808 16.6723 33.051Z" fill="url(#paint7_linear_55_15)"/>
<path d="M16.6723 33.051C18.1015 32.4436 19.3849 31.5742 20.4859 30.4676C21.5868 29.3611 22.4514 28.0717 23.0563 26.6348C23.6829 25.1458 24.0005 23.566 24.0005 21.9392C24.0005 20.2875 23.4415 18.3724 22.2911 16.0833C22.1691 15.8407 22.0375 15.5909 21.9014 15.3386C19.6753 17.8977 17.2651 21.0809 14.8298 23.185C11.3278 26.2113 9.36025 30.1712 9.2569 33.6798C10.1507 33.8906 11.0677 34 12.0003 34C13.6184 34 15.1902 33.6808 16.6723 33.051Z" fill="url(#paint8_linear_55_15)"/>
</g>
</g>
<defs>
<linearGradient id="paint0_linear_55_15" x1="0" y1="18" x2="24.0001" y2="18" gradientUnits="userSpaceOnUse">
<stop offset="0.0992" stop-color="#3CFFE6"/>
<stop offset="1" stop-color="#533FFF"/>
</linearGradient>
<linearGradient id="paint1_linear_55_15" x1="-4.60814" y1="12.2467" x2="9.71076" y2="24.6625" gradientUnits="userSpaceOnUse">
<stop offset="0.0992" stop-color="#3CFFE6"/>
<stop offset="1" stop-color="#533FFF"/>
</linearGradient>
<linearGradient id="paint2_linear_55_15" x1="-7.90837" y1="20.7308" x2="16.0917" y2="20.7308" gradientUnits="userSpaceOnUse">
<stop offset="0.0992" stop-color="#3CFFE6"/>
<stop offset="1" stop-color="#533FFF"/>
</linearGradient>
<linearGradient id="paint3_linear_55_15" x1="11.8365" y1="22.2162" x2="6.9858" y2="40.5871" gradientUnits="userSpaceOnUse">
<stop offset="0.0992" stop-color="#3CFFE6"/>
<stop offset="1" stop-color="#533FFF"/>
</linearGradient>
<linearGradient id="paint4_linear_55_15" x1="2.70621" y1="21.6102" x2="14.9017" y2="31.1116" gradientUnits="userSpaceOnUse">
<stop offset="0.0992" stop-color="#3CFFE6"/>
<stop offset="1" stop-color="#533FFF"/>
</linearGradient>
<linearGradient id="paint5_linear_55_15" x1="7.07714" y1="12.0375" x2="20.9421" y2="28.0845" gradientUnits="userSpaceOnUse">
<stop offset="0.0992" stop-color="#3CFFE6"/>
<stop offset="1" stop-color="#533FFF"/>
</linearGradient>
<linearGradient id="paint6_linear_55_15" x1="7.7746" y1="26.3654" x2="24.3627" y2="9.74591" gradientUnits="userSpaceOnUse">
<stop offset="0.0992" stop-color="#3CFFE6"/>
<stop offset="1" stop-color="#533FFF"/>
</linearGradient>
<linearGradient id="paint7_linear_55_15" x1="13.5386" y1="22.124" x2="27.0153" y2="37.7217" gradientUnits="userSpaceOnUse">
<stop offset="0.0992" stop-color="#3CFFE6"/>
<stop offset="1" stop-color="#533FFF"/>
</linearGradient>
<linearGradient id="paint8_linear_55_15" x1="31.0967" y1="17.3626" x2="12.4824" y2="28.1093" gradientUnits="userSpaceOnUse">
<stop offset="0.0992" stop-color="#3CFFE6"/>
<stop offset="1" stop-color="#533FFF"/>
</linearGradient>
<clipPath id="clip0_55_15">
<rect width="24" height="32" fill="white" transform="translate(0 2)"/>
</clipPath>
</defs>
</svg>
