<svg width="24" height="32" viewBox="0 0 24 32" fill="none" xmlns="http://www.w3.org/2000/svg">
<g clip-path="url(#clip0_55_20)">
<path d="M19.0809 8.82027C16.8523 5.6228 14.6508 3.06776 14.5581 2.96086L12.0003 0L10.1436 2.1487C10.0509 2.25611 7.14772 5.6228 4.91907 8.82027C3.57663 10.7465 2.49684 12.5173 1.70942 14.0833C0.559054 16.3724 0 18.288 0 19.9392C0 21.5661 0.317587 23.1458 0.944191 24.6348C1.54861 26.0712 2.41366 27.3611 3.51463 28.4671C4.6156 29.5737 5.89855 30.4426 7.32769 31.0505C8.80926 31.6803 10.3811 31.9995 11.9997 31.9995C13.6184 31.9995 15.1902 31.6803 16.6718 31.0505C18.1009 30.4431 19.3844 29.5737 20.4849 28.4671C21.5858 27.3606 22.4504 26.0712 23.0553 24.6348C23.6819 23.1458 23.9995 21.5661 23.9995 19.9392C23.9995 18.2875 23.4404 16.3724 22.2901 14.0833C21.5037 12.5173 20.4239 10.7465 19.0809 8.82027Z" fill="url(#paint0_linear_55_20)"/>
<g opacity="0.56">
<path d="M6.47827 26.3904C11.2607 20.875 11.9463 13.6081 8.00924 10.1598C7.15377 9.4105 6.1506 8.90436 5.05518 8.6257C5.0093 8.69055 4.96394 8.7554 4.91857 8.82026C3.57613 10.7465 2.49633 12.5173 1.70892 14.0833C0.559054 16.3724 0 18.288 0 19.9392C0 21.566 0.317587 23.1458 0.944191 24.6348C1.54861 26.0712 2.41366 27.3606 3.51463 28.4676C3.64015 28.5938 3.7687 28.7164 3.89926 28.836C4.80615 28.1322 5.67473 27.317 6.47827 26.3904Z" fill="url(#paint1_linear_55_20)"/>
<path d="M6.47827 26.3904C11.2607 20.875 11.9463 13.6081 8.00924 10.1598C7.15377 9.4105 6.1506 8.90436 5.05518 8.6257C5.0093 8.69055 4.96394 8.7554 4.91857 8.82026C3.57613 10.7465 2.49633 12.5173 1.70892 14.0833C0.559054 16.3724 0 18.288 0 19.9392C0 21.566 0.317587 23.1458 0.944191 24.6348C1.54861 26.0712 2.41366 27.3606 3.51463 28.4676C3.64015 28.5938 3.7687 28.7164 3.89926 28.836C4.80615 28.1322 5.67473 27.317 6.47827 26.3904Z" fill="url(#paint2_linear_55_20)"/>
</g>
<g opacity="0.56">
<path d="M11.6524 20.1677C7.28484 19.0141 3.01758 19.581 0.0892258 21.3887C0.22231 22.5049 0.506122 23.5926 0.944694 24.6353C1.54912 26.0717 2.41416 27.3611 3.51513 28.4681C4.6161 29.5747 5.89905 30.4436 7.3287 31.0515C8.81026 31.6813 10.3821 32.0005 12.0008 32.0005C13.6194 32.0005 15.1912 31.6813 16.6728 31.0515C18.102 30.4441 19.3854 29.5747 20.4864 28.4681C20.808 28.1449 21.1069 27.8044 21.3877 27.4508C19.8386 24.2158 16.2625 21.3852 11.6524 20.1677Z" fill="url(#paint3_linear_55_20)"/>
<path d="M11.6524 20.1677C7.28484 19.0141 3.01758 19.581 0.0892258 21.3887C0.22231 22.5049 0.506122 23.5926 0.944694 24.6353C1.54912 26.0717 2.41416 27.3611 3.51513 28.4681C4.6161 29.5747 5.89905 30.4436 7.3287 31.0515C8.81026 31.6813 10.3821 32.0005 12.0008 32.0005C13.6194 32.0005 15.1912 31.6813 16.6728 31.0515C18.102 30.4441 19.3854 29.5747 20.4864 28.4681C20.808 28.1449 21.1069 27.8044 21.3877 27.4508C19.8386 24.2158 16.2625 21.3852 11.6524 20.1677Z" fill="url(#paint4_linear_55_20)"/>
</g>
<g opacity="0.56">
<path d="M22.2906 14.0834C21.5037 12.5173 20.4239 10.7466 19.0809 8.82028C18.4488 7.91287 17.8186 7.05764 17.2379 6.29514C16.4283 7.34998 15.5834 8.35163 14.7078 9.18709C12.3345 11.4513 9.34159 9.46727 7.08572 10.5211C1.01124 13.3588 1.01124 20.1469 6.28318 24.4134C10.3508 27.7051 17.7405 28.8502 23.2605 24.0806C23.2665 24.0755 23.2721 24.0699 23.2781 24.0644C23.757 22.7445 23.9995 21.3599 23.9995 19.9392C24 18.288 23.4409 16.3724 22.2906 14.0834Z" fill="url(#paint5_linear_55_20)"/>
<path d="M22.2906 14.0834C21.5037 12.5173 20.4239 10.7466 19.0809 8.82028C18.4488 7.91287 17.8186 7.05764 17.2379 6.29514C16.4283 7.34998 15.5834 8.35163 14.7078 9.18709C12.3345 11.4513 9.34159 9.46727 7.08572 10.5211C1.01124 13.3588 1.01124 20.1469 6.28318 24.4134C10.3508 27.7051 17.7405 28.8502 23.2605 24.0806C23.2665 24.0755 23.2721 24.0699 23.2781 24.0644C23.757 22.7445 23.9995 21.3599 23.9995 19.9392C24 18.288 23.4409 16.3724 22.2906 14.0834Z" fill="url(#paint6_linear_55_20)"/>
</g>
<g opacity="0.56">
<path d="M16.6723 31.051C18.1015 30.4436 19.3849 29.5742 20.4859 28.4676C21.5868 27.3611 22.4514 26.0717 23.0563 24.6348C23.6829 23.1458 24.0005 21.566 24.0005 19.9392C24.0005 18.2875 23.4415 16.3724 22.2911 14.0833C22.1691 13.8407 22.0375 13.5909 21.9014 13.3386C19.6753 15.8977 17.2651 19.0809 14.8298 21.185C11.3278 24.2113 9.36025 28.1712 9.2569 31.6798C10.1507 31.8906 11.0677 32 12.0003 32C13.6184 32 15.1902 31.6808 16.6723 31.051Z" fill="url(#paint7_linear_55_20)"/>
<path d="M16.6723 31.051C18.1015 30.4436 19.3849 29.5742 20.4859 28.4676C21.5868 27.3611 22.4514 26.0717 23.0563 24.6348C23.6829 23.1458 24.0005 21.566 24.0005 19.9392C24.0005 18.2875 23.4415 16.3724 22.2911 14.0833C22.1691 13.8407 22.0375 13.5909 21.9014 13.3386C19.6753 15.8977 17.2651 19.0809 14.8298 21.185C11.3278 24.2113 9.36025 28.1712 9.2569 31.6798C10.1507 31.8906 11.0677 32 12.0003 32C13.6184 32 15.1902 31.6808 16.6723 31.051Z" fill="url(#paint8_linear_55_20)"/>
</g>
</g>
<defs>
<linearGradient id="paint0_linear_55_20" x1="0" y1="16" x2="24.0001" y2="16" gradientUnits="userSpaceOnUse">
<stop offset="0.0992" stop-color="#3CFFE6"/>
<stop offset="1" stop-color="#533FFF"/>
</linearGradient>
<linearGradient id="paint1_linear_55_20" x1="-4.60814" y1="10.2467" x2="9.71076" y2="22.6625" gradientUnits="userSpaceOnUse">
<stop offset="0.0992" stop-color="#3CFFE6"/>
<stop offset="1" stop-color="#533FFF"/>
</linearGradient>
<linearGradient id="paint2_linear_55_20" x1="-7.90837" y1="18.7308" x2="16.0917" y2="18.7308" gradientUnits="userSpaceOnUse">
<stop offset="0.0992" stop-color="#3CFFE6"/>
<stop offset="1" stop-color="#533FFF"/>
</linearGradient>
<linearGradient id="paint3_linear_55_20" x1="11.8365" y1="20.2162" x2="6.9858" y2="38.5871" gradientUnits="userSpaceOnUse">
<stop offset="0.0992" stop-color="#3CFFE6"/>
<stop offset="1" stop-color="#533FFF"/>
</linearGradient>
<linearGradient id="paint4_linear_55_20" x1="2.70621" y1="19.6102" x2="14.9017" y2="29.1116" gradientUnits="userSpaceOnUse">
<stop offset="0.0992" stop-color="#3CFFE6"/>
<stop offset="1" stop-color="#533FFF"/>
</linearGradient>
<linearGradient id="paint5_linear_55_20" x1="7.07714" y1="10.0375" x2="20.9421" y2="26.0845" gradientUnits="userSpaceOnUse">
<stop offset="0.0992" stop-color="#3CFFE6"/>
<stop offset="1" stop-color="#533FFF"/>
</linearGradient>
<linearGradient id="paint6_linear_55_20" x1="7.7746" y1="24.3654" x2="24.3627" y2="7.74591" gradientUnits="userSpaceOnUse">
<stop offset="0.0992" stop-color="#3CFFE6"/>
<stop offset="1" stop-color="#533FFF"/>
</linearGradient>
<linearGradient id="paint7_linear_55_20" x1="13.5386" y1="20.124" x2="27.0153" y2="35.7217" gradientUnits="userSpaceOnUse">
<stop offset="0.0992" stop-color="#3CFFE6"/>
<stop offset="1" stop-color="#533FFF"/>
</linearGradient>
<linearGradient id="paint8_linear_55_20" x1="31.0967" y1="15.3626" x2="12.4824" y2="26.1093" gradientUnits="userSpaceOnUse">
<stop offset="0.0992" stop-color="#3CFFE6"/>
<stop offset="1" stop-color="#533FFF"/>
</linearGradient>
<clipPath id="clip0_55_20">
<rect width="24" height="32" fill="white"/>
</clipPath>
</defs>
</svg>
